<svg width="34" height="33" viewBox="0 0 34 33" fill="none" xmlns="http://www.w3.org/2000/svg">
<path d="M7.03709 7.91673C6.34119 7.91673 5.66092 7.71037 5.0823 7.32375C4.50367 6.93713 4.05269 6.3876 3.78638 5.74467C3.52007 5.10174 3.45039 4.39428 3.58616 3.71175C3.72192 3.02922 4.05703 2.40228 4.54911 1.9102C5.04118 1.41812 5.66813 1.08301 6.35066 0.947248C7.03319 0.811484 7.74065 0.881163 8.38358 1.14747C9.02651 1.41378 9.57604 1.86476 9.96266 2.44339C10.3493 3.02201 10.5556 3.70228 10.5556 4.39819C10.5556 5.33136 10.1849 6.22632 9.52508 6.88617C8.86523 7.54603 7.97027 7.91673 7.03709 7.91673ZM7.03709 2.63891C6.68914 2.63891 6.34901 2.74209 6.0597 2.9354C5.77038 3.12872 5.54489 3.40348 5.41174 3.72494C5.27858 4.04641 5.24374 4.40014 5.31163 4.7414C5.37951 5.08267 5.54706 5.39614 5.7931 5.64218C6.03914 5.88822 6.35261 6.05577 6.69388 6.12365C7.03514 6.19154 7.38887 6.1567 7.71034 6.02354C8.0318 5.89039 8.30656 5.6649 8.49988 5.37558C8.69319 5.08627 8.79637 4.74614 8.79637 4.39819C8.79637 3.9316 8.61102 3.48412 8.28109 3.15419C7.95116 2.82426 7.50368 2.63891 7.03709 2.63891ZM21.1113 7.91673C20.4154 7.91673 19.7351 7.71037 19.1565 7.32375C18.5779 6.93713 18.1269 6.3876 17.8606 5.74467C17.5943 5.10174 17.5246 4.39428 17.6603 3.71175C17.7961 3.02922 18.1312 2.40228 18.6233 1.9102C19.1154 1.41812 19.7423 1.08301 20.4248 0.947248C21.1074 0.811484 21.8148 0.881163 22.4578 1.14747C23.1007 1.41378 23.6502 1.86476 24.0368 2.44339C24.4235 3.02201 24.6298 3.70228 24.6298 4.39819C24.6298 5.33136 24.2591 6.22632 23.5993 6.88617C22.9394 7.54603 22.0445 7.91673 21.1113 7.91673ZM21.1113 2.63891C20.7633 2.63891 20.4232 2.74209 20.1339 2.9354C19.8446 3.12872 19.6191 3.40348 19.4859 3.72494C19.3528 4.04641 19.3179 4.40014 19.3858 4.7414C19.4537 5.08267 19.6212 5.39614 19.8673 5.64218C20.1133 5.88822 20.4268 6.05577 20.7681 6.12365C21.1093 6.19154 21.4631 6.1567 21.7845 6.02354C22.106 5.89039 22.3807 5.6649 22.5741 5.37558C22.7674 5.08627 22.8705 4.74614 22.8705 4.39819C22.8705 3.9316 22.6852 3.48412 22.3553 3.15419C22.0253 2.82426 21.5779 2.63891 21.1113 2.63891ZM22.8705 26.3891H19.352C18.8854 26.3891 18.4379 26.2037 18.108 25.8738C17.7781 25.5439 17.5927 25.0964 17.5927 24.6298V18.4724H19.352V24.6298H22.8705V16.7131H24.6298V11.4353C24.6298 11.202 24.5371 10.9782 24.3722 10.8133C24.2072 10.6483 23.9835 10.5556 23.7502 10.5556H18.1029L14.0742 17.5927L10.0455 10.5556H4.39819C4.16489 10.5556 3.94115 10.6483 3.77619 10.8133C3.61123 10.9782 3.51855 11.202 3.51855 11.4353V16.7131H5.27782V24.6298H8.79637V18.4724H10.5556V24.6298C10.5556 25.0964 10.3703 25.5439 10.0404 25.8738C9.71043 26.2037 9.26296 26.3891 8.79637 26.3891H5.27782C4.81123 26.3891 4.36376 26.2037 4.03383 25.8738C3.7039 25.5439 3.51855 25.0964 3.51855 24.6298V18.4724C3.05196 18.4724 2.60448 18.287 2.27456 17.9571C1.94463 17.6272 1.75928 17.1797 1.75928 16.7131V11.4353C1.75928 10.7354 2.0373 10.0642 2.5322 9.56928C3.02709 9.07439 3.6983 8.79637 4.39819 8.79637H11.0658L14.0742 14.0742L17.0825 8.79637H23.7502C24.4501 8.79637 25.1213 9.07439 25.6162 9.56928C26.1111 10.0642 26.3891 10.7354 26.3891 11.4353V16.7131C26.3891 17.1797 26.2037 17.6272 25.8738 17.9571C25.5439 18.287 25.0964 18.4724 24.6298 18.4724V24.6298C24.6298 25.0964 24.4445 25.5439 24.1145 25.8738C23.7846 26.2037 23.3371 26.3891 22.8705 26.3891Z" fill="white"/>
<circle cx="27.4018" cy="26.3358" r="5.36424" fill="#89E280" stroke="#21343E"/>
</svg>
