<svg width="34" height="31" viewBox="0 0 34 31" fill="none" xmlns="http://www.w3.org/2000/svg">
<path d="M24.3131 21.6254C23.7788 20.36 23.0036 19.2105 22.0304 18.2411C21.0603 17.2689 19.911 16.4938 18.6462 15.9585C18.6348 15.9528 18.6235 15.95 18.6122 15.9443C20.3765 14.6699 21.5235 12.594 21.5235 10.252C21.5235 6.37207 18.38 3.22852 14.5001 3.22852C10.6202 3.22852 7.47663 6.37207 7.47663 10.252C7.47663 12.594 8.62361 14.6699 10.388 15.9472C10.3766 15.9528 10.3653 15.9557 10.354 15.9613C9.08523 16.4966 7.94675 17.2641 6.9697 18.2439C5.99749 19.2141 5.22235 20.3634 4.68708 21.6282C4.16124 22.8665 3.87764 24.1942 3.85163 25.5393C3.85088 25.5695 3.85618 25.5996 3.86723 25.6277C3.87827 25.6558 3.89484 25.6815 3.91596 25.7031C3.93707 25.7248 3.9623 25.742 3.99017 25.7537C4.01803 25.7655 4.04796 25.7715 4.0782 25.7715H5.77741C5.90202 25.7715 6.00115 25.6724 6.00398 25.5506C6.06062 23.3643 6.93855 21.3167 8.4905 19.7647C10.0963 18.159 12.2288 17.2754 14.5001 17.2754C16.7714 17.2754 18.9039 18.159 20.5096 19.7647C22.0616 21.3167 22.9395 23.3643 22.9962 25.5506C22.999 25.6752 23.0981 25.7715 23.2227 25.7715H24.9219C24.9522 25.7715 24.9821 25.7655 25.01 25.7537C25.0378 25.742 25.0631 25.7248 25.0842 25.7031C25.1053 25.6815 25.1219 25.6558 25.1329 25.6277C25.144 25.5996 25.1493 25.5695 25.1485 25.5393C25.1202 24.1855 24.8398 22.8687 24.3131 21.6254ZM14.5001 15.123C13.2002 15.123 11.9767 14.6161 11.0563 13.6957C10.1359 12.7753 9.62898 11.5519 9.62898 10.252C9.62898 8.95205 10.1359 7.72861 11.0563 6.8082C11.9767 5.88779 13.2002 5.38086 14.5001 5.38086C15.8 5.38086 17.0234 5.88779 17.9438 6.8082C18.8642 7.72861 19.3712 8.95205 19.3712 10.252C19.3712 11.5519 18.8642 12.7753 17.9438 13.6957C17.0234 14.6161 15.8 15.123 14.5001 15.123Z" fill="white"/>
<circle cx="27.4018" cy="24.3358" r="5.36424" fill="#89E280" stroke="#21343E"/>
</svg>
